<svg width="100" height="100" viewBox="0 0 100 100" fill="none" xmlns="http://www.w3.org/2000/svg">
<rect width="100" height="100" rx="5" fill="#E2E6EC"/>
<path fill-rule="evenodd" clip-rule="evenodd" d="M28.6667 37C28.6667 34.6068 30.6068 32.6667 33 32.6667H67C69.3932 32.6667 71.3333 34.6068 71.3333 37V63.6667C71.3333 66.0599 69.3932 68 67 68H33C30.6068 68 28.6667 66.0599 28.6667 63.6667V37ZM33 34.6667C31.7113 34.6667 30.6667 35.7113 30.6667 37V63.6667C30.6667 64.9553 31.7113 66 33 66H67C68.2887 66 69.3333 64.9553 69.3333 63.6667V37C69.3333 35.7113 68.2887 34.6667 67 34.6667H33Z" fill="#B2B9C4"/>
<ellipse cx="38.6666" cy="42" rx="4.33333" ry="4.33333" fill="#B2B9C4"/>
<path d="M34.3333 60.3333V58.357C34.3333 57.915 34.5089 57.4911 34.8215 57.1785L40.2096 51.7904C40.8387 51.1613 41.8509 51.1372 42.5092 51.7357L43.8405 52.9459C44.4921 53.5383 45.4921 53.5215 46.1235 52.9077L55.8217 43.4789C56.4751 42.8436 57.5176 42.8509 58.162 43.4953L65.8452 51.1785C66.1577 51.4911 66.3333 51.915 66.3333 52.357V60.3333C66.3333 61.2538 65.5871 62 64.6667 62H36C35.0795 62 34.3333 61.2538 34.3333 60.3333Z" fill="#B2B9C4"/>
</svg>
