<svg width="226" height="207" viewBox="0 0 226 207" fill="none" xmlns="http://www.w3.org/2000/svg">
<g filter="url(#filter0_d_85_256)">
<path d="M51.5 38.6134L36.5 1H91L106.5 50.3675L113.5 38.6134H218L203.5 79.0477H120L129 104.907L141 93.6229H198L184 136.408H141L166 198H113.5L91 136.408H2L12.5 93.6229H74.5L70 79.0477H12.5L24.5 38.6134H51.5Z" fill="white"/>
<path d="M51.5 38.6134L36.5 1H91L106.5 50.3675L113.5 38.6134H218L203.5 79.0477H120L129 104.907L141 93.6229H198L184 136.408H141L166 198H113.5L91 136.408H2L12.5 93.6229H74.5L70 79.0477H12.5L24.5 38.6134H51.5Z" stroke="white"/>
</g>
<defs>
<filter id="filter0_d_85_256" x="0.362457" y="0.5" width="225.348" height="206" filterUnits="userSpaceOnUse" color-interpolation-filters="sRGB">
<feFlood flood-opacity="0" result="BackgroundImageFix"/>
<feColorMatrix in="SourceAlpha" type="matrix" values="0 0 0 0 0 0 0 0 0 0 0 0 0 0 0 0 0 0 127 0" result="hardAlpha"/>
<feOffset dx="3" dy="4"/>
<feGaussianBlur stdDeviation="2"/>
<feComposite in2="hardAlpha" operator="out"/>
<feColorMatrix type="matrix" values="0 0 0 0 0 0 0 0 0 0 0 0 0 0 0 0 0 0 0.25 0"/>
<feBlend mode="normal" in2="BackgroundImageFix" result="effect1_dropShadow_85_256"/>
<feBlend mode="normal" in="SourceGraphic" in2="effect1_dropShadow_85_256" result="shape"/>
</filter>
</defs>
</svg>
